<svg xmlns="http://www.w3.org/2000/svg" width="19.682" height="17.797" viewBox="0 0 19.682 17.797">
  <path id="pills" d="M16.017,14.5H9.826l-.906.906h1.734v5.518H6.43a2.761,2.761,0,0,1-2.67-2.077l-.1,0a4.419,4.419,0,0,1-.846-.082A3.671,3.671,0,0,0,6.43,21.826h9.587a3.665,3.665,0,1,0,0-7.33Zm-.835,6.378H12.147a.388.388,0,1,1,0-.777h3.035a.388.388,0,1,1,0,.777Zm1.548,0h-.151a.388.388,0,1,1,0-.777h.151a.388.388,0,1,1,0,.777ZM13.032,5.1a3.675,3.675,0,0,0-5.184,0L1.069,11.878a3.665,3.665,0,0,0,5.184,5.183l6.779-6.779a3.674,3.674,0,0,0,0-5.183ZM5.612,16.42a2.759,2.759,0,0,1-3.9-3.9L4.7,9.532l3.9,3.9ZM11.768,10.2,9.622,12.345a.388.388,0,0,1-.549-.549L11.219,9.65a.388.388,0,1,1,.549.549ZM12.863,9.1l-.106.106a.388.388,0,0,1-.549-.549l.106-.106a.388.388,0,0,1,.549.549Z" transform="translate(0 -4.029)" fill="#333"/>
</svg>
