<svg xmlns="http://www.w3.org/2000/svg" viewBox="0 0 30.91 26.29"><defs><style>.cls-1{fill:none;}.cls-2{fill:#4285f4;}.cls-3{fill:#24519d;}.cls-4{fill:#ddd;}.cls-5{fill:#f5f5f5;}.cls-6{fill:#fff;}</style></defs><title>icon_folder (2)</title><g id="Layer_2" data-name="Layer 2"><g id="Layer_1-2" data-name="Layer 1"><g id="icon_folder"><path id="Path_897" data-name="Path 897" class="cls-1" d="M29.91,21.89a3.4,3.4,0,0,1-3.4,3.4H4.4A3.4,3.4,0,0,1,1,21.89V4.4A3.4,3.4,0,0,1,4.4,1h9.24a5.24,5.24,0,0,0,5.15,4.32h7.72a3.41,3.41,0,0,1,3.4,3.4V21.89Z"/><g id="Path_869" data-name="Path 869"><path class="cls-2" d="M26.51,26.29H4.4A4.42,4.42,0,0,1,0,21.89V4.4A4.41,4.41,0,0,1,4.4,0H14.48l.14.82a4.24,4.24,0,0,0,4.17,3.5h7.72a4.42,4.42,0,0,1,4.4,4.4V21.89A4.42,4.42,0,0,1,26.51,26.29ZM4.4,2A2.41,2.41,0,0,0,2,4.4V21.89a2.41,2.41,0,0,0,2.4,2.4H26.51A2.41,2.41,0,0,0,28.91,22V8.72a2.42,2.42,0,0,0-2.41-2.4H18.79A6.25,6.25,0,0,1,12.86,2Z"/><path class="cls-3" d="M26.51,24.29A2.41,2.41,0,0,0,28.91,22V8.72a2.42,2.42,0,0,0-2.41-2.4H18.79A6.25,6.25,0,0,1,12.86,2H4.4A2.41,2.41,0,0,0,2,4.4V21.89a2.41,2.41,0,0,0,2.4,2.4Z"/></g><g id="Path_870" data-name="Path 870"><path class="cls-4" d="M26.51,10.66a3.24,3.24,0,0,1,2,.68V7.14a1,1,0,0,0-1-1H4.24a1,1,0,0,0-1,1v3.52Z"/><path class="cls-5" d="M26.51,10.66a1.86,1.86,0,0,1,.34,0V8a1,1,0,0,0-1-1H3.42a1,1,0,0,0-1,1v2.71Z"/><path class="cls-6" d="M25.22,8.77a1,1,0,0,0-1-1H2.61a1,1,0,0,0-1,1v1.89H25.22Z"/></g><path class="cls-2" d="M30.83,14.06a4.38,4.38,0,0,0-4.32-4.4H.6L.7,21.89A4.38,4.38,0,0,0,5,26.29H26.59a4.38,4.38,0,0,0,4.32-4.4Z"/></g></g></g></svg>